<svg class="icon svg-icon default-logo log-img" xmlns="http://www.w3.org/2000/svg"><defs><symbol id="icon-a-HikvisionLogo-R" viewBox="0 0 8082 1024"><path d="M4493.129143 475.355429c-139.008-180.662857-26.660571-462.043429 227.218286-465.371429h516.059428l-46.592 125.732571h-417.024c-69.083429 0.804571-108.214857 85.723429-69.083428 137.362286 64.109714 99.072 173.970286 168.155429 242.212571 269.714286 148.992 200.630857-1.645714 462.043429-223.890286 462.043428h-566.857143l46.628572-125.696h446.976c69.083429-0.841143 107.373714-85.76 71.570286-136.521142-56.576-92.416-157.293714-181.504-227.218286-267.264z m-523.556572 531.163428h-281.344L4055.296 10.825143h281.344l-367.067429 995.693714z m1385.874286 0h-282.185143L5440.365714 10.825143h281.344l-366.262857 995.693714z m426.166857-694.308571c98.230857-207.323429 304.64-317.220571 496.091429-311.369143H6452.516571c147.309714 6.656 236.397714 128.182857 244.699429 228.937143 1.682286 24.137143 0.841143 47.433143-1.645714 64.950857-2.523429 11.629714-5.010286 22.454857-7.497143 34.121143-30.793143 128.219429-77.421714 258.084571-138.166857 375.478857-98.230857 207.286857-304.64 317.184-496.091429 311.332571h-174.774857c-147.382857-6.656-236.434286-128.182857-243.931429-228.937143-1.645714-24.137143-1.645714-46.628571 1.682286-64.914285 2.486857-10.825143 5.010286-22.491429 7.497143-34.157715 29.110857-128.182857 75.739429-258.084571 137.325714-375.442285z m532.736-208.128c-104.045714 3.291429-191.451429 62.427429-228.937143 159.817143L5898.971429 770.925714a84.699429 84.699429 0 0 0-6.656 38.290286c0 54.125714 42.459429 99.072 94.902857 103.241143h27.465143c104.045714-3.328 191.451429-62.464 228.937142-159.853714l185.6-507.026286c4.973714-11.629714 7.460571-24.941714 6.656-38.290286 0-54.125714-42.459429-99.072-95.744-103.204571h-25.782857z m-2997.394285 591.067428L3774.829714 10.825143h165.632L3300.352 964.900571a96.036571 96.036571 0 0 1-75.776 42.422858h-9.142857 0.841143-156.489143L2981.522286 11.702857h281.344l54.125714 683.52zM6993.554286 332.178286l-0.841143-12.507429-253.878857 686.006857h-144.822857L6962.761143 9.984h183.954286l265.508571 672.694857L7661.092571 9.984h145.664L7438.043429 1005.714286h-133.193143c-36.608-1.645714-68.242286-24.978286-82.395429-57.417143l-228.937143-616.082286z" fill="#6D6E71"></path><path d="M1449.984 1006.518857h-299.666286L1518.226286 10.825143h298.825143L1449.984 1006.518857zM527.725714 393.764571h356.242286L1025.499429 9.984h298.788571L979.748571 944.896s0 0.841143-0.841142 0.841143a95.597714 95.597714 0 0 1-87.405715 59.977143H657.554286l175.652571-476.233143h-355.437714L302.153143 1005.677714H3.291429L370.395429 9.984H669.257143l-141.531429 383.780571z m1650.578286-9.142857L2666.057143 9.984H2889.142857L2390.564571 392.96l316.306286 612.717714h-253.878857c0.841143 0 1.645714 0 2.486857-0.841143-39.131429 2.523429-74.898286-19.968-91.538286-53.248 0 0 0-0.841143-0.841142-0.841142v0.841142l-198.107429-384.658285-74.934857 57.453714-140.653714 382.134857h-298.788572L2017.645714 10.825143h298.825143l-138.166857 373.796571z" fill="#D71820"></path><path d="M7915.812571 175.652571v-126.537142h55.771429c11.666286 0 19.968 0.841143 25.782857 3.328a32.548571 32.548571 0 0 1 14.153143 11.666285c3.328 5.851429 5.010286 12.470857 5.010286 19.126857 0 9.142857-2.486857 16.676571-8.338286 22.491429-5.814857 5.851429-14.994286 9.984-26.624 11.666286 4.169143 2.486857 7.497143 4.169143 9.984 6.656 5.010286 4.169143 9.142857 9.984 14.153143 16.64l21.650286 34.121143h-20.845715l-16.603428-26.624a260.754286 260.754286 0 0 0-12.507429-17.481143 38.582857 38.582857 0 0 0-8.301714-8.338286 29.549714 29.549714 0 0 0-7.497143-3.291429c-1.682286 0-5.010286-0.841143-9.142857-0.841142h-20.004572V174.811429h-16.64v0.841142z m16.64-70.765714h35.803429c7.497143 0 13.312-0.804571 18.285714-2.486857a22.710857 22.710857 0 0 0 10.020572-7.497143 19.126857 19.126857 0 0 0 3.291428-11.666286 20.845714 20.845714 0 0 0-6.619428-14.994285c-4.169143-4.132571-10.825143-5.814857-20.845715-5.814857h-39.936v42.459428z" fill="#6D6E71"></path><path d="M7968.256 6.656a107.629714 107.629714 0 0 0-107.373714 107.410286 107.629714 107.629714 0 0 0 107.373714 107.373714 107.629714 107.629714 0 0 0 107.373714-107.373714 107.629714 107.629714 0 0 0-107.373714-107.410286z m0 202.313143a94.866286 94.866286 0 0 1-94.902857-94.902857 94.866286 94.866286 0 1 1 189.805714 0 94.866286 94.866286 0 0 1-94.902857 94.902857z" fill="#6D6E71"></path></symbol></defs>
                                <use href="#icon-a-HikvisionLogo-R"></use>
                            </svg>